# xmcd CD database file
#
# Track frame offsets:
#	150
#	14903
#	31728
#	48434
#	56937
#	69561
#	81352
#	97236
#
# Disc length: 1552 seconds
#
# Revision: 0
# Processed by: cddbd v1.4PL0 Copyright (c) Steve Scherf et al.
# Submitted via: CDex 1.40Release
#
DISCID=72060e08
DTITLE=Bonkan Blues Band - Bonkan Blues Band
DYEAR=2003
DGENRE=Blues
TTITLE0=Mogna kvinnor (smakar bäst)
TTITLE1=Desert Blues
TTITLE2=Sopkusken
TTITLE3=Min nya grannes fru
TTITLE4=All kind of women
TTITLE5=Viagra
TTITLE6=Hon var lite tänd på mig
TTITLE7=Eva
EXTD=YEAR: 2003 ID3G: 0
EXTT0=
EXTT1=
EXTT2=
EXTT3=
EXTT4=
EXTT5=
EXTT6=
EXTT7=
PLAYORDER=
